<?xml version="1.0" encoding="UTF-8"?>
<svg version="1.1" viewBox="0 0 2048 826" width="847" height="342" xmlns="http://www.w3.org/2000/svg">
<path transform="translate(0)" d="m0 0h2048v826h-2048z" fill="#FBFBFB"/>
<path transform="translate(932,95)" d="m0 0h93l-6 7-11 14-82 2-42 2-16 2-6 4-5 9-16 63-3 13v6l5 5 117 1-6 36-2 21-1 42-59 1-5 3-3 5 1 7 9 10 13 12 11 7 7 3 12 1h22l3 6 11 33 9 20 4 8-49 1h-72l-54-1-22-5-15-6-6-3 4 6 1 3 16 8 17 5 18 3 1 1v39l-2 7-7 5-4 1h-57l-7-2-6-7-1-17v-48l-1-34-11-97v-16l4-11 6-9 8-8 12-6 9-2h39l13 2 11 4 10 7 12 12 6 8-3-10-7-12-9-8-16-8-10-3-16-2 3-9 3-6h-36l-6-3-4-5-1-10 2-10 7-6 28-1 7 3 4 5 4 7 2 1 2-9 16-43 10-26 4-8 8-9 10-6 7-2 12-1z" fill="#010101"/>
<path transform="translate(1061,81)" d="m0 0 73 2 25 1 15 3 14 7 10 9 6 10 8 19 13 36 2 7 5-2 6-1h24l10 2 8 5 6 8 2 5 1 6v12l-3 9-8 9-7 4 13 5 10 6 10 9 7 11 4 10 2 10v13l-11 99-1 92-2 12-6 8-8 6-7 2h-64l-8-2-8-6-6-9-1-3-1-15v-27h-112l-68-1-6-11v-3h202l13-1 24-6 16-7h2l-2 5-7 7-18 8-16 4-14 2 1 42 3 5 3 3 3 1h64l6-4 2-3 1-7v-54l1-39 11-99v-11l-2-9-5-10-8-9-10-6-10-3h-48l-13 3-11 6-10 9-10 11-1 2h-2l3-9 4-8 9-10 10-7 11-5 13-3h12l-4-12v-4l31-1 8-2 5-6v-14l-4-8-3-2-7-1h-15l-10 1-5 3-6 11h-2l-7-18-13-35-9-24-5-10-4-5-11-7-9-3-11-1-54-2-50-1 2-4 5-6h2z" fill="#010101"/>
<path transform="translate(746,541)" d="m0 0h13l12 3 12 7 7 7 6 10 3 9 1 6v10l-3 13-5 9-8 9-9 6-11 4-5 1h-11l-12-3-11-6-10-10-7-14-2-10 1-14 4-11 6-9 8-8 8-5z" fill="#010101"/>
<path transform="translate(877,541)" d="m0 0h12l12 3 11 6 9 9 7 13 2 7v17l-4 12-6 10-7 7-10 6-13 4h-12l-14-4-11-7-9-10-6-13-1-5v-17l4-12 7-10 7-7 11-6z" fill="#010101"/>
<path transform="translate(601,542)" d="m0 0h45l10 4 7 7 4 10v12l-3 7 1 4 4 6 2 6v12l-4 10-5 6-14 7h-47z" fill="#010101"/>
<path transform="translate(1031,117)" d="m0 0h54l61 2 14 1 10 5 4 5 4 10 17 68v10l-6 5h-206l1-7 1-6 27-1h145l24 1-17-69-3-6-1-1-9-1-57-2-72-1 2-4z" fill="#010101"/>
<path transform="translate(796,281)" d="m0 0h8l10 2 10 5 9 8 6 10 3 11v11l-3 10-5 9-8 8-8 5-11 3h-13l-10-3-9-6-5-5-4-5-4-8-2-7v-14l4-11 6-9 8-7 12-6z" fill="#FCFCFC"/>
<path transform="translate(1227,281)" d="m0 0h8l12 3 10 5 9 10 5 10 2 16-2 11-6 11-8 8-13 7-4 1h-16l-9-3-8-5-6-5-7-11-3-10v-13l3-10 6-10 8-8 11-5z" fill="#010101"/>
<path transform="translate(1295,542)" d="m0 0h43l10 3 8 6 6 9 2 5v16l-5 10-5 5-2 4 13 24 4 6v2h-25l-13-23-2-4-12-1v28l-21 1-1-1z" fill="#010101"/>
<path transform="translate(286,541)" d="m0 0h25l9 24 17 47 6 17v3h-23l-5-14-32-1-3 10-2 5h-24l11-31 20-55z" fill="#010101"/>
<path transform="translate(971,541)" d="m0 0h22v33l5-5 22-28h28l-3 5-13 16-11 14-5 5 2 4 14 19 16 21 4 7h-27l-14-18-9-12-2-1-2 4-4 5-1 22-21 1-1-1z" fill="#010101"/>
<path transform="translate(1010,321)" d="m0 0h74l57 1 6 4 2 4v8l-20 20-13 9-10 4-24 1h-72l-28-1-3-9v-4l127-1 11-7 13-12 2-2-157-1-1-13z" fill="#010101"/>
<path transform="translate(1631,541)" d="m0 0h12l11 3 10 5 10 9 4 7-9 6-7 4-4-1-8-7-7-3h-11l-10 5-7 8-2 8 1 10 4 8 7 6 8 3h9l10-5 3-1 2-4 4-2 16 9v4l-7 9-10 7-12 5-6 1h-10l-14-4-11-7-7-7-6-10-4-14v-10l4-14 7-11 8-8 8-5 9-3z" fill="#010101"/>
<path transform="translate(413,541)" d="m0 0h13l9 2 13 7 10 10 2 3-1 4-11 6-4 2-4-1-4-5-10-5h-12l-8 4-8 8-2 5v12l5 10 7 6 7 3h9l10-4 7-8 4 1 15 8 1 2-7 9-8 7-12 6-10 2h-9l-12-3-11-6-6-5-7-10-4-9-2-10v-8l2-11 7-13 6-7 10-7 11-4z" fill="#010101"/>
<path transform="translate(1225,707)" d="m0 0 10 2 5 5 4 7 1 9-3 16-4 9-9 22-8 13 1 5 5 9 1 5-7-1-6-8-1-2-9 3h-11l-7-5-4-8-1-4v-15l5-19 8-19 7-10 9-8 10-5z" fill="#010101"/>
<path transform="translate(1197,542)" d="m0 0h56v20l-1 1h-34l1 12 31 1v20h-32l1 15 34 1v20l-26 1h-30l-1-1v-85z" fill="#010101"/>
<path transform="translate(501,542)" d="m0 0h56v20l-1 1h-34l1 12 31 1v20l-31 1v14l34 1v20l-33 1h-23l-1-2v-66z" fill="#010101"/>
<path transform="translate(1838,541)" d="m0 0h13l12 4 10 9 4 5-1 3-15 9-4-1-5-5-5-2-7 1-3 3v5l5 2 17 6 12 7 6 7 3 9v8l-2 7-6 8-9 6-11 3h-11l-12-3-9-6-7-8-2-6 17-10 9 9 3 1h12l5-4v-6l-5-2-20-7-10-6-6-8-2-12 2-9 6-9 9-6z" fill="#010101"/>
<path transform="translate(1115,541)" d="m0 0h13l10 3 9 6 7 9-1 3-15 9-4-1-5-5-8-2-5 2-2 2 1 4 4 3 17 6 11 6 8 9 2 7v10l-2 7-8 9-10 5-8 2h-11l-12-3-9-6-7-8-2-6 17-10 5 5 5 4 2 1h12l4-2 1-7-8-4-19-7-6-4-5-5-4-9v-13l4-8 7-7 8-4z" fill="#010101"/>
<path transform="translate(1718,542)" d="m0 0h56v20l-1 1h-34l1 12 31 1v20l-31 1v14l34 1v20l-53 1h-3l-1-55z" fill="#010101"/>
<path transform="translate(1404,541)" d="m0 0h22l4 9 13 41 2 7h2l2-9 16-48h23l-1 6-12 36-12 37-5 12-14 1-11-1-14-42-14-43z" fill="#010101"/>
<path transform="translate(171,542)" d="m0 0h57v20l-1 1h-34v14h33l1 1-1 20h-33v34l-21 1-1-1z" fill="#010101"/>
<path transform="translate(1e3 698)" d="m0 0 5 1 2 1-1 8-7 34-8 28-8 20-5 8-1 1h-5l-7-8-5-16-3-15 1-34h-2l-3 10-12 29-10 27-4 10-5-1-1-1v-7l13-37 10-22 6-17 5-8 2-2 5 1 3 7 1 6 1 40 4 21 2 8h2l9-27 7-29 6-28z" fill="#010101"/>
<path transform="translate(884,704)" d="m0 0 6 1 5 6v18l-4 46-1 22-6-1-2-1v-34h-16l-1 2-9 1-6 9-8 16-6 10-4-2-1-5 12-23 5-11 6-8 13-23 10-15 5-7z" fill="#010101"/>
<path transform="translate(789,717)" d="m0 0h7l4 6v24l-5 16-5 10-12 14-8 6-2 1h-9l-4-4v-11l5-20 8-18 9-13 10-10z" fill="#FCFCFC"/>
<path transform="translate(1224,714)" d="m0 0h7l4 2 2 7-2 16-10 25-6 12-3 5-3-1-4-7-6-1 1 6 5 10-5 4-4 2h-6l-3-4-1-4v-14l5-17 11-24 8-11 7-5z" fill="#FCFCFC"/>
<path transform="translate(1528,541)" d="m0 0h22v91l-10 1h-12z" fill="#010101"/>
<path transform="translate(748,563)" d="m0 0h11l10 5 6 7 3 7v11l-3 8-6 7-8 4-3 1h-9l-10-4-8-9-3-8v-8l3-9 8-8z" fill="#FCFCFC"/>
<path transform="translate(878,563)" d="m0 0h11l10 5 7 8 2 5v13l-5 10-7 6-8 3h-9l-8-3-8-7-4-8-1-8 2-9 4-6 7-6z" fill="#FCFCFC"/>
<path transform="translate(792,707)" d="m0 0 9 4 5 6 3 8 1 6v15l-4 13-12 21-11 12-7 6-7 3h-10l-8-6-3-4v-18l5-21 6-15 6-10 9-10 8-6zm-3 10-8 7-8 9-8 14-6 15-4 17v11l4 4h9l9-6 11-12 5-8 6-17 1-4v-24l-4-6z" fill="#010101"/>
<path transform="translate(677,702)" d="m0 0 5 4-1 6-8 16-8 21 40-1 2-9 9-27 2-4 3-1 5 5-2 6-4 8-12 36-8 26-3 12-5-1-2-5 11-39-8 1h-31l-9 33-4 16-6-2-1-3 6-26 10-32 11-26 6-13z" fill="#010101"/>
<path transform="translate(1300,703)" d="m0 0 6 2 1 6-7 10v3l-2 1-9 27-5 24v12l3 3 9-1 10-9 8-11 9-16 6-13 10-34 6 1v7l-4 17-10 25-8 15-9 12-9 10-4 2v2l-6 3h-8l-7-6-4-10v-15l4-21 9-26 8-15z" fill="#010101"/>
<path transform="translate(1075,705)" d="m0 0 10 1 8 4 3 3v5l-3 2-9-6-1-2-11 2-6 5-7 10-9 19-6 23-1 14 3 6h9l9-4 8-7 7-12 2-9-16-1v-5l2-2h13l7 3 2 2 1 6-3 10-6 9-10 10-11 6-6 2h-9l-6-4-4-8v-14l3-16 7-19 7-14 7-9 8-7z" fill="#010101"/>
<path transform="translate(1231,13)" d="m0 0 2 3 4 20 4 6 5 4 14 3 12 3-4 2-17 3-8 4-6 7-4 24h-2l-4-23-5-8-5-3-24-4-2-2 12-3 12-2 8-5 3-5 3-17z" fill="#010101"/>
<path transform="translate(1383,705)" d="m0 0h2l2 7 1 17 3 16 3 3 5-1 2-4 9-9 7-8 12-14 6-4 3 6-7 8-8 8-7 8-12 13-7 9-11 37-2 6-5-2-2-5 5-20 6-17-1-6-5-9-3-12v-20l3-6z" fill="#010101"/>
<path transform="translate(1061,245)" d="m0 0 2 1 3 17 4 6 4 3 14 3 7 1-2 2-19 4-7 6-4 19-2 2-2-12-2-7-3-5-4-3-19-4-2-2 18-3 8-5 3-7z" fill="#010101"/>
<path transform="translate(848,376)" d="m0 0h7l7 3 4 6 1 3v8l-4 6-5 4-9 1-7-3-4-5-2-4v-7l3-6 6-5z" fill="#FCFCFC"/>
<path transform="translate(1177,376)" d="m0 0h7l6 3 5 6 1 3v7l-4 8-7 4h-9l-6-4-4-6v-11l5-7z" fill="#010101"/>
<path transform="translate(886,714)" d="m0 0h1v19l-2 20-3 1-21 2 1-5 7-11 11-18z" fill="#FCFCFC"/>
<path transform="translate(1317,563)" d="m0 0h21l5 5 1 7-4 6-4 2h-19z" fill="#FCFCFC"/>
<path transform="translate(623,596)" d="m0 0h23l4 4v8l-5 4h-22l-1-1v-14z" fill="#FCFCFC"/>
<path transform="translate(622,563)" d="m0 0h22l3 3v7l-5 4h-19l-1-1z" fill="#FCFCFC"/>
<path transform="translate(298,575)" d="m0 0h2l7 19v2h-16l3-9z" fill="#FCFCFC"/>
<path transform="translate(1121,242)" d="m0 0 2 1 1 7 1 3 11 3v1l-10 2-2 3-1 7-2 1-2-9-4-3-7-1 2-2 7-2 3-5z" fill="#010101"/>
<path transform="translate(1121,388)" d="m0 0 2 2 2 8 2 2 8 1v2l-8 2-3 4-2 7h-1l-2-9-5-3-7-2v-1l9-1 3-2z" fill="#010101"/>
<path transform="translate(1280,113)" d="m0 0h2l2 10 11 3v1l-11 2-2 12-2-1-1-9-4-3-7-1 1-2 7-2 3-2z" fill="#010101"/>
</svg>
